<svg width="1400" height="1358" viewBox="0 0 1400 1358" fill="none" xmlns="http://www.w3.org/2000/svg">
<path d="M0 316H1400V1358H0V316Z" fill="#0D7377"/>
<path fill-rule="evenodd" clip-rule="evenodd" d="M0 63.6828L58.3333 77.7004C116.667 91.718 233.333 119.753 350 98.7268C466.667 77.7004 583.333 7.61229 700 0.603476C816.667 -6.40534 933.333 49.6652 1050 63.6828C1166.67 77.7004 1283.33 49.6652 1341.67 35.6475L1400 21.6299V316H1341.67C1283.33 316 1166.67 316 1050 316C933.333 316 816.667 316 700 316C583.333 316 466.667 316 350 316C233.333 316 116.667 316 58.3333 316H0V63.6828Z" fill="#0D7377"/>
</svg>
