<svg width="1399" height="1997" viewBox="0 0 1399 1997" fill="none" xmlns="http://www.w3.org/2000/svg">
<path d="M0 318H1400V1997H0V318Z" fill="#323232"/>
<path fill-rule="evenodd" clip-rule="evenodd" d="M0 150.166L58.3333 122.194C116.667 94.2217 233.333 38.2771 350 59.2563C466.667 80.2355 583.333 178.139 700 164.152C816.667 150.166 933.333 24.291 1050 3.31175C1166.67 -17.6675 1283.33 66.2494 1341.67 108.208L1400 150.166V318H1341.67C1283.33 318 1166.67 318 1050 318C933.333 318 816.667 318 700 318C583.333 318 466.667 318 350 318C233.333 318 116.667 318 58.3333 318H0V150.166Z" fill="#323232"/>
</svg>
