<svg width="1400" height="2174" viewBox="0 0 1400 2174" fill="none" xmlns="http://www.w3.org/2000/svg">
<path d="M0 356.043H1400V2174H0V356.043Z" fill="#323232"/>
<path fill-rule="evenodd" clip-rule="evenodd" d="M0 142.417L58.3333 106.813C116.667 71.2086 233.333 0 350 0C466.667 0 583.333 71.2086 700 124.615C816.667 178.022 933.333 213.626 1050 204.725C1166.67 195.824 1283.33 142.417 1341.67 115.714L1400 89.0108V356.043H1341.67C1283.33 356.043 1166.67 356.043 1050 356.043C933.333 356.043 816.667 356.043 700 356.043C583.333 356.043 466.667 356.043 350 356.043C233.333 356.043 116.667 356.043 58.3333 356.043H0V142.417Z" fill="#323232"/>
</svg>
